<svg width="32" height="32" viewBox="0 0 32 32" fill="none" xmlns="http://www.w3.org/2000/svg">
<g id="moon-fill" clip-path="url(#clip0_2425_20733)">
<path id="Vector" d="M12 0.55562C12.1952 0.792845 12.3148 1.08316 12.3434 1.38907C12.3719 1.69497 12.308 2.00239 12.16 2.27162C11.0037 4.39457 10.3999 6.77421 10.404 9.19162C10.404 17.2336 16.96 23.7456 25.04 23.7456C26.094 23.7456 27.12 23.6356 28.106 23.4256C28.4083 23.3602 28.7231 23.3852 29.0112 23.4976C29.2993 23.61 29.5479 23.8048 29.726 24.0576C29.914 24.3205 30.0098 24.6382 29.9986 24.9612C29.9874 25.2842 29.8698 25.5944 29.664 25.8436C28.0954 27.7705 26.1165 29.323 23.8717 30.388C21.6268 31.453 19.1726 32.0036 16.688 31.9996C7.468 31.9996 0 24.5716 0 15.4196C0 8.53162 4.228 2.62362 10.248 0.11962C10.5479 -0.00711585 10.8808 -0.0331279 11.1967 0.0454918C11.5126 0.124111 11.7945 0.303118 12 0.55562Z" fill="#212529"/>
</g>
<defs>
<clipPath id="clip0_2425_20733">
<rect width="32" height="32" fill="white"/>
</clipPath>
</defs>
</svg>
